<mxfile host="app.diagrams.net" modified="2022-09-11T09:12:02.497Z" agent="5.0 (Windows NT 6.1; Win64; x64) AppleWebKit/537.36 (KHTML, like Gecko) Chrome/100.0.4896.127 Safari/537.36" etag="8AQqu4WLa5NQGFOSjEIx" version="20.3.0" type="github">
  <diagram id="sSUNDJ4acDck_fxiAASo" name="第 1 页">
    <mxGraphModel dx="1422" dy="800" grid="1" gridSize="10" guides="1" tooltips="1" connect="1" arrows="1" fold="1" page="1" pageScale="1" pageWidth="827" pageHeight="1169" math="0" shadow="0">
      <root>
        <mxCell id="0" />
        <mxCell id="1" parent="0" />
        <mxCell id="QDTk_lBvC4lLmpNK7d44-16" value="" style="rounded=1;whiteSpace=wrap;html=1;" vertex="1" parent="1">
          <mxGeometry x="90" y="100" width="900" height="920" as="geometry" />
        </mxCell>
        <mxCell id="QDTk_lBvC4lLmpNK7d44-7" style="edgeStyle=orthogonalEdgeStyle;rounded=0;orthogonalLoop=1;jettySize=auto;html=1;exitX=0.5;exitY=1;exitDx=0;exitDy=0;" edge="1" parent="1" source="QDTk_lBvC4lLmpNK7d44-1" target="QDTk_lBvC4lLmpNK7d44-2">
          <mxGeometry relative="1" as="geometry" />
        </mxCell>
        <mxCell id="QDTk_lBvC4lLmpNK7d44-1" value="输入" style="ellipse;whiteSpace=wrap;html=1;" vertex="1" parent="1">
          <mxGeometry x="350" y="160" width="120" height="80" as="geometry" />
        </mxCell>
        <mxCell id="QDTk_lBvC4lLmpNK7d44-12" style="edgeStyle=orthogonalEdgeStyle;rounded=0;orthogonalLoop=1;jettySize=auto;html=1;exitX=0.5;exitY=1;exitDx=0;exitDy=0;entryX=0.5;entryY=0;entryDx=0;entryDy=0;" edge="1" parent="1" source="QDTk_lBvC4lLmpNK7d44-2" target="QDTk_lBvC4lLmpNK7d44-3">
          <mxGeometry relative="1" as="geometry" />
        </mxCell>
        <mxCell id="QDTk_lBvC4lLmpNK7d44-2" value="认知" style="ellipse;whiteSpace=wrap;html=1;" vertex="1" parent="1">
          <mxGeometry x="350" y="280" width="120" height="80" as="geometry" />
        </mxCell>
        <mxCell id="QDTk_lBvC4lLmpNK7d44-9" style="edgeStyle=orthogonalEdgeStyle;rounded=0;orthogonalLoop=1;jettySize=auto;html=1;exitX=0.5;exitY=1;exitDx=0;exitDy=0;" edge="1" parent="1" source="QDTk_lBvC4lLmpNK7d44-3" target="QDTk_lBvC4lLmpNK7d44-4">
          <mxGeometry relative="1" as="geometry" />
        </mxCell>
        <mxCell id="QDTk_lBvC4lLmpNK7d44-3" value="原则" style="ellipse;whiteSpace=wrap;html=1;" vertex="1" parent="1">
          <mxGeometry x="350" y="420" width="120" height="80" as="geometry" />
        </mxCell>
        <mxCell id="QDTk_lBvC4lLmpNK7d44-10" style="edgeStyle=orthogonalEdgeStyle;rounded=0;orthogonalLoop=1;jettySize=auto;html=1;exitX=0.5;exitY=1;exitDx=0;exitDy=0;entryX=0.5;entryY=0;entryDx=0;entryDy=0;" edge="1" parent="1" source="QDTk_lBvC4lLmpNK7d44-4" target="QDTk_lBvC4lLmpNK7d44-5">
          <mxGeometry relative="1" as="geometry" />
        </mxCell>
        <mxCell id="QDTk_lBvC4lLmpNK7d44-4" value="术" style="ellipse;whiteSpace=wrap;html=1;" vertex="1" parent="1">
          <mxGeometry x="350" y="560" width="120" height="80" as="geometry" />
        </mxCell>
        <mxCell id="QDTk_lBvC4lLmpNK7d44-13" style="edgeStyle=orthogonalEdgeStyle;rounded=0;orthogonalLoop=1;jettySize=auto;html=1;entryX=0;entryY=0.5;entryDx=0;entryDy=0;exitX=0;exitY=0.5;exitDx=0;exitDy=0;" edge="1" parent="1" source="QDTk_lBvC4lLmpNK7d44-21" target="QDTk_lBvC4lLmpNK7d44-1">
          <mxGeometry relative="1" as="geometry">
            <Array as="points">
              <mxPoint x="240" y="900" />
              <mxPoint x="240" y="200" />
            </Array>
          </mxGeometry>
        </mxCell>
        <mxCell id="QDTk_lBvC4lLmpNK7d44-24" style="edgeStyle=orthogonalEdgeStyle;rounded=0;orthogonalLoop=1;jettySize=auto;html=1;exitX=0.5;exitY=1;exitDx=0;exitDy=0;" edge="1" parent="1" source="QDTk_lBvC4lLmpNK7d44-5" target="QDTk_lBvC4lLmpNK7d44-21">
          <mxGeometry relative="1" as="geometry" />
        </mxCell>
        <mxCell id="QDTk_lBvC4lLmpNK7d44-5" value="计划" style="ellipse;whiteSpace=wrap;html=1;" vertex="1" parent="1">
          <mxGeometry x="350" y="710" width="120" height="80" as="geometry" />
        </mxCell>
        <mxCell id="QDTk_lBvC4lLmpNK7d44-15" value="复盘" style="ellipse;whiteSpace=wrap;html=1;" vertex="1" parent="1">
          <mxGeometry x="150" y="420" width="120" height="80" as="geometry" />
        </mxCell>
        <mxCell id="QDTk_lBvC4lLmpNK7d44-17" value="交易模型" style="text;html=1;strokeColor=none;fillColor=none;align=center;verticalAlign=middle;whiteSpace=wrap;rounded=0;" vertex="1" parent="1">
          <mxGeometry x="300" y="60" width="200" height="40" as="geometry" />
        </mxCell>
        <mxCell id="QDTk_lBvC4lLmpNK7d44-19" style="edgeStyle=orthogonalEdgeStyle;rounded=0;orthogonalLoop=1;jettySize=auto;html=1;exitX=0;exitY=0.5;exitDx=0;exitDy=0;entryX=1;entryY=0.5;entryDx=0;entryDy=0;" edge="1" parent="1" source="QDTk_lBvC4lLmpNK7d44-18" target="QDTk_lBvC4lLmpNK7d44-2">
          <mxGeometry relative="1" as="geometry" />
        </mxCell>
        <mxCell id="QDTk_lBvC4lLmpNK7d44-23" style="edgeStyle=orthogonalEdgeStyle;rounded=0;orthogonalLoop=1;jettySize=auto;html=1;exitX=0;exitY=0.5;exitDx=0;exitDy=0;" edge="1" parent="1" source="QDTk_lBvC4lLmpNK7d44-18" target="QDTk_lBvC4lLmpNK7d44-21">
          <mxGeometry relative="1" as="geometry">
            <Array as="points">
              <mxPoint x="800" y="900" />
            </Array>
          </mxGeometry>
        </mxCell>
        <mxCell id="QDTk_lBvC4lLmpNK7d44-18" value="心学" style="ellipse;whiteSpace=wrap;html=1;" vertex="1" parent="1">
          <mxGeometry x="800" y="280" width="120" height="80" as="geometry" />
        </mxCell>
        <mxCell id="QDTk_lBvC4lLmpNK7d44-21" value="执行" style="ellipse;whiteSpace=wrap;html=1;" vertex="1" parent="1">
          <mxGeometry x="350" y="860" width="120" height="80" as="geometry" />
        </mxCell>
        <mxCell id="QDTk_lBvC4lLmpNK7d44-25" value="成熟" style="ellipse;whiteSpace=wrap;html=1;" vertex="1" parent="1">
          <mxGeometry x="920" y="250" width="90" height="40" as="geometry" />
        </mxCell>
        <mxCell id="QDTk_lBvC4lLmpNK7d44-26" value="等待" style="ellipse;whiteSpace=wrap;html=1;" vertex="1" parent="1">
          <mxGeometry x="1030" y="220" width="90" height="40" as="geometry" />
        </mxCell>
        <mxCell id="QDTk_lBvC4lLmpNK7d44-27" value="平静" style="ellipse;whiteSpace=wrap;html=1;" vertex="1" parent="1">
          <mxGeometry x="1030" y="270" width="90" height="40" as="geometry" />
        </mxCell>
        <mxCell id="QDTk_lBvC4lLmpNK7d44-28" value="艺术" style="ellipse;whiteSpace=wrap;html=1;" vertex="1" parent="1">
          <mxGeometry x="920" y="340" width="90" height="40" as="geometry" />
        </mxCell>
        <mxCell id="QDTk_lBvC4lLmpNK7d44-29" value="欣赏" style="ellipse;whiteSpace=wrap;html=1;" vertex="1" parent="1">
          <mxGeometry x="1030" y="340" width="90" height="40" as="geometry" />
        </mxCell>
        <mxCell id="QDTk_lBvC4lLmpNK7d44-30" value="若水三千只取一瓢" style="ellipse;whiteSpace=wrap;html=1;" vertex="1" parent="1">
          <mxGeometry x="1151" y="270" width="109" height="40" as="geometry" />
        </mxCell>
        <mxCell id="QDTk_lBvC4lLmpNK7d44-31" value="孤独" style="ellipse;whiteSpace=wrap;html=1;" vertex="1" parent="1">
          <mxGeometry x="1030" y="170" width="90" height="40" as="geometry" />
        </mxCell>
        <mxCell id="QDTk_lBvC4lLmpNK7d44-33" style="edgeStyle=orthogonalEdgeStyle;rounded=0;orthogonalLoop=1;jettySize=auto;html=1;exitX=0;exitY=0.5;exitDx=0;exitDy=0;entryX=1;entryY=0.5;entryDx=0;entryDy=0;" edge="1" parent="1" source="QDTk_lBvC4lLmpNK7d44-32" target="QDTk_lBvC4lLmpNK7d44-3">
          <mxGeometry relative="1" as="geometry" />
        </mxCell>
        <mxCell id="QDTk_lBvC4lLmpNK7d44-32" value="风险" style="ellipse;whiteSpace=wrap;html=1;" vertex="1" parent="1">
          <mxGeometry x="800" y="420" width="120" height="80" as="geometry" />
        </mxCell>
      </root>
    </mxGraphModel>
  </diagram>
</mxfile>
